<svg id="Layer_1" data-name="Layer 1" xmlns="http://www.w3.org/2000/svg" viewBox="0 0 496.16 515.2"><defs><style>.cls-1{fill:#605DC8;}</style></defs><title>logo-camaleao-Negativo</title><path class="cls-1" d="M397.68,174.93a18.89,18.89,0,1,0,0,.66v0h0C397.71,175.33,397.68,175.13,397.68,174.93Z" transform="translate(0 0)"/><path class="cls-1" d="M279.08,0a16.93,16.93,0,0,0-1.88.11,16.22,16.22,0,0,0-14.26,18s.37,3.3.78,9.25.82,14.41.82,24.11a261,261,0,0,1-2.32,37.06C224.8,78.09,190.69,74.82,161.34,77,74.9,80.32,5.86,148.8.18,279.42-1.57,319.8,9.05,392.1,39.64,436.23c24.66,35.41,51.27,60.43,86,70.11a248.21,248.21,0,0,0,67.88,8.85,224.93,224.93,0,0,0,66.6-9.68c26.77-7.93,53.18-38.94,53.18-72.77a73,73,0,0,0-.84-11.24A65.2,65.2,0,0,0,248,365.85a60.1,60.1,0,0,0-8.89.61,54.53,54.53,0,0,0-47.17,54,57.13,57.13,0,0,0,.57,8.05,45.28,45.28,0,0,0,12.56,24.69c6.57,6.71,16,12.18,27.57,12.24,12.2.12,24.23-6.81,32.6-17.93a16.24,16.24,0,1,0-25.68-19.89c-4.58,5.59-6.31,5.27-6.92,5.32s-2.37-.43-4.37-2.48a13.34,13.34,0,0,1-3.59-6.55,23.45,23.45,0,0,1-.25-3.45,22.07,22.07,0,0,1,19.2-21.86,30.46,30.46,0,0,1,4.37-.29,32.77,32.77,0,0,1,32.31,28,40.17,40.17,0,0,1,.48,6.39,43.5,43.5,0,0,1-31.63,41.76,1.78,1.78,0,0,1-.56.06c-3.65.76-7.15,1.29-10.56,1.71-1.32.08-2.61.27-4,.27-51.85-1.5-82-37-90.33-54.5-7.41-15.53-7.35-31.32-7.27-41.73,0-2.09.08-4,.23-5.6,2.69-28.12,12.34-42.83,21.06-51.59a47.31,47.31,0,0,1,16.74-11h4.91a65.08,65.08,0,0,0,18.71,41.6v0a16,16,0,0,0,7.33,4.14,15,15,0,0,0,5.95,1.22h16.36a15.13,15.13,0,0,0,0-30.25h-8.31A33.13,33.13,0,0,1,212,312.11c33.26,0,76.63.1,114.29.11A65.24,65.24,0,0,0,345,353.74a16.15,16.15,0,0,0,12,4.71,15.26,15.26,0,0,0,4.19.65h16.37a15.13,15.13,0,0,0,0-30.25H366.31a33.24,33.24,0,0,1-7.41-16.64c19.69,0,35.54,0,44.22-.13,24.76-.33,48.2-3.79,66.53-19.45,18.35-15.92,26.63-41.3,26.51-75.55C496.16,97.19,399,0,279.08,0ZM417.19,175.54a38.89,38.89,0,1,1-38.9-38.88,38.89,38.89,0,0,1,38.9,38.88Z" transform="translate(0 0)"/></svg>
