<?xml version="1.0" encoding="UTF-8"?>
<!DOCTYPE svg PUBLIC "-//W3C//DTD SVG 1.1//EN" "http://www.w3.org/Graphics/SVG/1.1/DTD/svg11.dtd">
<svg xmlns="http://www.w3.org/2000/svg" version="1.1" width="78px" height="82px" style="shape-rendering:geometricPrecision; text-rendering:geometricPrecision; image-rendering:optimizeQuality; fill-rule:evenodd; clip-rule:evenodd" xmlns:xlink="http://www.w3.org/1999/xlink">
<g><path style="opacity:0.954" fill="#56b1ad" d="M 77.5,25.5 C 77.5,27.5 77.5,29.5 77.5,31.5C 71.2089,29.3606 65.8756,25.8606 61.5,21C 54.6881,19.2612 48.3548,16.4279 42.5,12.5C 42.2514,13.5821 42.0848,14.9154 42,16.5C 41.7216,15.5842 41.2216,14.9175 40.5,14.5C 40.5,14.1667 40.5,13.8333 40.5,13.5C 40.3345,9.48617 40.5012,5.48617 41,1.5C 53.2317,-0.393559 63.2317,3.60644 71,13.5C 73.4639,17.4339 75.6306,21.4339 77.5,25.5 Z"/></g>
<g><path style="opacity:0.992" fill="#388aa0" d="M 38.5,13.5 C 36.6146,15.3115 34.2813,16.4782 31.5,17C 33.8333,18.5 36.1667,20 38.5,21.5C 39.1757,20.3984 39.8423,19.3984 40.5,18.5C 40.3433,19.8734 40.51,21.2068 41,22.5C 44.0823,24.625 47.2489,26.625 50.5,28.5C 51.1757,27.3984 51.8423,26.3984 52.5,25.5C 52.5,31.5 55.5,34.5 61.5,34.5C 60.5707,35.3149 59.5707,36.1482 58.5,37C 63.7287,40.1133 69.062,42.9466 74.5,45.5C 72.6855,48.4074 70.0188,49.7407 66.5,49.5C 66.5858,48.5041 66.2524,47.6708 65.5,47C 47.5341,36.8552 29.5341,27.0219 11.5,17.5C 13.6489,15.2542 16.3156,13.7542 19.5,13C 25.8837,12.2489 32.217,12.4156 38.5,13.5 Z"/></g>
<g><path style="opacity:1" fill="#286f94" d="M 38.5,13.5 C 39.1667,13.5 39.8333,13.5 40.5,13.5C 40.5,13.8333 40.5,14.1667 40.5,14.5C 40.5,15.8333 40.5,17.1667 40.5,18.5C 39.8423,19.3984 39.1757,20.3984 38.5,21.5C 36.1667,20 33.8333,18.5 31.5,17C 34.2813,16.4782 36.6146,15.3115 38.5,13.5 Z"/></g>
<g><path style="opacity:0.973" fill="#2e7a99" d="M 11.5,17.5 C 29.5341,27.0219 47.5341,36.8552 65.5,47C 66.2524,47.6708 66.5858,48.5041 66.5,49.5C 63.3752,50.4794 60.0419,50.8128 56.5,50.5C 53.4946,49.6591 50.4946,48.4925 47.5,47C 33.5752,38.8749 19.5752,31.0416 5.5,23.5C 6.62195,20.5622 8.62195,18.5622 11.5,17.5 Z"/></g>
<g><path style="opacity:1" fill="#e7f0f2" d="M 64.5,31.5 C 63.1667,32.1667 62.1667,33.1667 61.5,34.5C 55.5,34.5 52.5,31.5 52.5,25.5C 55.2456,22.6946 58.5789,21.8613 62.5,23C 65.3108,25.4057 65.9775,28.239 64.5,31.5 Z"/></g>
<g><path style="opacity:0.959" fill="#236890" d="M 5.5,23.5 C 19.5752,31.0416 33.5752,38.8749 47.5,47C 50.4946,48.4925 53.4946,49.6591 56.5,50.5C 57.6085,51.29 58.9419,51.79 60.5,52C 62.3526,55.4471 61.3526,57.2805 57.5,57.5C 53.659,57.3296 51.3256,55.3296 50.5,51.5C 47.5719,50.5159 44.5719,50.1826 41.5,50.5C 28.8333,42.8333 16.1667,35.1667 3.5,27.5C 3.6596,25.847 4.32627,24.5137 5.5,23.5 Z"/></g>
<g><path style="opacity:0.929" fill="#225f8b" d="M 3.5,27.5 C 16.1667,35.1667 28.8333,42.8333 41.5,50.5C 38.8127,50.3359 36.146,50.5026 33.5,51C 38.2994,51.8742 39.2994,54.0409 36.5,57.5C 47.2953,58.4185 51.1286,64.0852 48,74.5C 45.471,77.8849 42.3044,80.2182 38.5,81.5C 32.5,81.5 26.5,81.5 20.5,81.5C 9.09808,76.4274 2.09808,67.7608 -0.5,55.5C -0.5,49.1667 -0.5,42.8333 -0.5,36.5C 0.442336,33.3448 1.77567,30.3448 3.5,27.5 Z M 36.5,57.5 C 30.66,59.8457 28.4934,64.179 30,70.5C 31.4998,72.4687 33.3331,73.802 35.5,74.5C 23.7178,72.5571 19.5512,65.8904 23,54.5C 23.6368,52.6969 24.8035,51.3636 26.5,50.5C 27.6261,52.7931 28.9594,54.9597 30.5,57C 32.4727,57.4955 34.4727,57.6621 36.5,57.5 Z M 42.5,70.5 C 42.157,66.5623 40.157,65.5623 36.5,67.5C 35.1667,66.5 35.1667,65.5 36.5,64.5C 39.2454,63.0247 41.412,63.6913 43,66.5C 43.765,68.0657 43.5983,69.3991 42.5,70.5 Z M 42.5,70.5 C 42.0349,73.4734 40.3682,74.6401 37.5,74C 39.3231,73.0027 40.9897,71.8361 42.5,70.5 Z"/></g>
<g><path style="opacity:1" fill="#1c537b" d="M 57.5,25.5 C 61.35,25.7007 62.35,27.5341 60.5,31C 56.5369,31.1177 55.5369,29.2843 57.5,25.5 Z"/></g>
<g><path style="opacity:0.981" fill="#48a0a7" d="M 77.5,31.5 C 77.5,34.1667 77.5,36.8333 77.5,39.5C 72.9634,37.0699 68.6301,34.4032 64.5,31.5C 65.9775,28.239 65.3108,25.4057 62.5,23C 58.5789,21.8613 55.2456,22.6946 52.5,25.5C 51.8423,26.3984 51.1757,27.3984 50.5,28.5C 47.2489,26.625 44.0823,24.625 41,22.5C 40.51,21.2068 40.3433,19.8734 40.5,18.5C 40.5,17.1667 40.5,15.8333 40.5,14.5C 41.2216,14.9175 41.7216,15.5842 42,16.5C 42.0848,14.9154 42.2514,13.5821 42.5,12.5C 48.3548,16.4279 54.6881,19.2612 61.5,21C 65.8756,25.8606 71.2089,29.3606 77.5,31.5 Z"/></g>
<g><path style="opacity:0.968" fill="#4095a4" d="M 64.5,31.5 C 68.6301,34.4032 72.9634,37.0699 77.5,39.5C 77.5,40.5 77.5,41.5 77.5,42.5C 76.7281,43.6935 75.7281,44.6935 74.5,45.5C 69.062,42.9466 63.7287,40.1133 58.5,37C 59.5707,36.1482 60.5707,35.3149 61.5,34.5C 62.1667,33.1667 63.1667,32.1667 64.5,31.5 Z"/></g>
</svg>
